<?xml version="1.0" encoding="UTF-8" standalone="no"?>
<!-- Created with Inkscape (http://www.inkscape.org/) -->

 <svg
   xmlns:dc="http://purl.org/dc/elements/1.1/"
   xmlns:cc="http://creativecommons.org/ns#"
   xmlns:rdf="http://www.w3.org/1999/02/22-rdf-syntax-ns#"
   xmlns:svg="http://www.w3.org/2000/svg"
   xmlns="http://www.w3.org/2000/svg"
   xmlns:sodipodi="http://sodipodi.sourceforge.net/DTD/sodipodi-0.dtd"
   xmlns:inkscape="http://www.inkscape.org/namespaces/inkscape"
   id="svg7384"
   sodipodi:docname="display-mic-muted.svg"
   version="1.1"
   inkscape:version="0.92.2 2405546, 2018-03-11"
   height="96"
   width="96">
  <metadata
     id="metadata90">
    <rdf:RDF>
      <cc:Work
         rdf:about="">
        <dc:format>image/svg+xml</dc:format>
        <dc:type
           rdf:resource="http://purl.org/dc/dcmitype/StillImage" />
        <dc:title>Gnome Symbolic Icon Theme</dc:title>
      </cc:Work>
    </rdf:RDF>
  </metadata>
  <sodipodi:namedview
     inkscape:cy="55.313603"
     pagecolor="#555753"
     borderopacity="1"
     showborder="false"
     inkscape:bbox-paths="false"
     guidetolerance="10"
     inkscape:object-paths="true"
     inkscape:window-width="1920"
     showguides="true"
     inkscape:object-nodes="true"
     inkscape:snap-bbox="true"
     inkscape:pageshadow="2"
     inkscape:guide-bbox="true"
     inkscape:snap-nodes="false"
     bordercolor="#666666"
     objecttolerance="10"
     id="namedview88"
     showgrid="false"
     inkscape:window-maximized="0"
     inkscape:window-x="0"
     inkscape:snap-global="true"
     inkscape:window-y="19"
     gridtolerance="10"
     inkscape:window-height="1061"
     inkscape:snap-to-guides="true"
     inkscape:current-layer="layer9"
     inkscape:snap-bbox-midpoints="false"
     inkscape:zoom="5.6568542"
     inkscape:cx="35.833556"
     inkscape:snap-grids="true"
     inkscape:pageopacity="1">
    <inkscape:grid
       spacingx="1"
       spacingy="1"
       id="grid4866"
       empspacing="2"
       enabled="true"
       type="xygrid"
       snapvisiblegridlinesonly="true"
       visible="true"
       originx="0"
       originy="0" />
  </sodipodi:namedview>
  <title
     id="title9167">Gnome Symbolic Icon Theme</title>
  <defs
     id="defs7386" />
  <g
     transform="scale(5.9)"
     id="g28">
    <g
       inkscape:label="status"
       transform="translate(-81,-317)"
       inkscape:groupmode="layer"
       id="layer9"
       style="display:inline">
      <path
         style="fill:#bebebe;fill-opacity:1;stroke-width:2.49263287"
         d="M 48 0.640625 C 39.749387 0.640625 33.044922 7.3202451 33.044922 15.595703 L 33.044922 45.507812 C 33.044922 49.193405 34.389366 52.564911 36.605469 55.173828 L 62.728516 13.078125 C 61.53356 6.0089652 55.415529 0.640625 48 0.640625 z M 62.923828 35.140625 L 47.232422 60.423828 C 47.488376 60.4369 47.740836 60.462891 48 60.462891 C 56.250613 60.462891 62.90625 53.758313 62.90625 45.507812 L 62.923828 35.140625 z M 13.103516 45.507812 C 13.103516 56.117992 18.371833 65.573094 26.298828 71.779297 L 30.671875 64.732422 C 25.19938 60.215672 21.578125 53.504701 21.578125 45.507812 L 13.103516 45.507812 z M 74.421875 45.507812 C 74.421875 60.463604 61.784253 70.931641 48 70.931641 C 45.698705 70.931641 43.429962 70.631941 41.244141 70.074219 L 36.671875 77.441406 C 38.72095 78.153477 40.842679 78.68652 43.015625 79.007812 L 43.015625 95.359375 L 52.984375 95.359375 L 52.984375 79.007812 C 69.336054 76.590052 82.896484 62.532439 82.896484 45.507812 L 74.421875 45.507812 z "
         transform="matrix(0.16949153,0,0,0.16949153,81,317)"
         id="path3811" />
      <rect
         style="display:inline;fill:#bebebe;fill-opacity:1;stroke-width:0.16738039"
         id="rect4725"
         width="0.5"
         height="20"
         x="246.93028"
         y="219.26015"
         transform="rotate(31.823115)" />
    </g>
    <g
       inkscape:label="devices"
       transform="translate(-81,-317)"
       inkscape:groupmode="layer"
       id="layer10" />
    <g
       inkscape:label="apps"
       transform="translate(-81,-317)"
       inkscape:groupmode="layer"
       id="layer11" />
    <g
       inkscape:label="actions"
       transform="translate(-81,-317)"
       inkscape:groupmode="layer"
       id="layer12" />
    <g
       inkscape:label="places"
       transform="translate(-81,-317)"
       inkscape:groupmode="layer"
       id="layer13" />
    <g
       inkscape:label="mimetypes"
       transform="translate(-81,-317)"
       inkscape:groupmode="layer"
       id="layer14" />
    <g
       inkscape:label="emblems"
       transform="translate(-81,-317)"
       inkscape:groupmode="layer"
       id="layer15"
       style="display:inline" />
    <g
       inkscape:label="categories"
       transform="translate(-81,-317)"
       inkscape:groupmode="layer"
       id="g4953"
       style="display:inline" />
  </g>
</svg>
